<svg width="1024" height="1024" viewBox="0 0 1024 1024" fill="none" xmlns="http://www.w3.org/2000/svg">
<rect width="1024" height="1024" fill="#3A5FCD"/>
<path fill-rule="evenodd" clip-rule="evenodd" d="M45.0014 503.25H107.98C112.433 503.25 116.029 499.614 115.98 495.162L114.598 369.481C114.574 367.255 116.372 365.438 118.598 365.438H150.428C151.532 365.438 152.428 364.542 152.428 363.438V271C152.428 268.791 154.218 267 156.428 267H194.634C196.843 267 198.634 268.791 198.634 271V363.438C198.634 364.542 199.529 365.438 200.634 365.438H255.989C258.199 365.438 259.989 367.228 259.989 369.438V495.25C259.989 499.668 263.571 503.25 267.989 503.25H978.594C979.369 503.25 979.849 504.094 979.453 504.761L847.052 727.643C836.24 745.844 816.637 757 795.467 757H200.143C185.247 757 171.586 748.723 164.689 735.521L44.115 504.713C43.7672 504.047 44.2502 503.25 45.0014 503.25ZM797.352 399C792.933 399 789.352 402.582 789.352 407V471C789.352 475.418 792.933 479 797.352 479H861.352C865.77 479 869.352 475.418 869.352 471V407C869.352 402.582 865.77 399 861.352 399H797.352ZM679.352 407C679.352 402.582 682.933 399 687.352 399H751.352C755.77 399 759.352 402.582 759.352 407V471C759.352 475.418 755.77 479 751.352 479H687.352C682.933 479 679.352 475.418 679.352 471V407ZM577.352 399C572.933 399 569.352 402.582 569.352 407V471C569.352 475.418 572.933 479 577.352 479H641.352C645.77 479 649.352 475.418 649.352 471V407C649.352 402.582 645.77 399 641.352 399H577.352ZM569.352 297C569.352 292.582 572.933 289 577.352 289H641.352C645.77 289 649.352 292.582 649.352 297V361C649.352 365.418 645.77 369 641.352 369H577.352C572.933 369 569.352 365.418 569.352 361V297ZM467.352 399C462.933 399 459.352 402.582 459.352 407V471C459.352 475.418 462.933 479 467.352 479H531.352C535.77 479 539.352 475.418 539.352 471V407C539.352 402.582 535.77 399 531.352 399H467.352ZM459.352 297C459.352 292.582 462.933 289 467.352 289H531.352C535.77 289 539.352 292.582 539.352 297V361C539.352 365.418 535.77 369 531.352 369H467.352C462.933 369 459.352 365.418 459.352 361V297ZM357.352 399C352.933 399 349.352 402.582 349.352 407V471C349.352 475.418 352.933 479 357.352 479H421.352C425.77 479 429.352 475.418 429.352 471V407C429.352 402.582 425.77 399 421.352 399H357.352Z" fill="white"/>
</svg>
